<svg width="631" height="476" viewBox="0 0 631 476" fill="none" xmlns="http://www.w3.org/2000/svg">
<path opacity="0.45" d="M314.727 417.014C431.524 417.014 526.207 410.052 526.207 401.462C526.207 392.873 431.524 385.91 314.727 385.91C197.93 385.91 103.247 392.873 103.247 401.462C103.247 410.052 197.93 417.014 314.727 417.014Z" fill="#E6E6E6"/>
<path d="M325.517 69.3904L323.498 113.599C317.614 124.652 315.91 126.483 313.812 126.878V140.109C319.002 141.372 323.608 141.688 326.322 140.109C335.787 134.425 342.317 105.547 342.317 105.547L325.517 69.3904Z" fill="#68E1FD"/>
<path d="M492.574 117.651L144.374 118.503L144.992 371.74L493.193 370.889L492.574 117.651Z" fill="#F2F2F2"/>
<path d="M492.685 118.068H144.357V167.929H492.685V118.068Z" fill="#E6E6E6"/>
<path d="M175.607 150.103C179.092 150.103 181.917 147.276 181.917 143.788C181.917 140.3 179.092 137.472 175.607 137.472C172.122 137.472 169.297 140.3 169.297 143.788C169.297 147.276 172.122 150.103 175.607 150.103Z" fill="#24285B"/>
<path d="M194.38 150.056C197.864 150.056 200.69 147.228 200.69 143.74C200.69 140.252 197.864 137.425 194.38 137.425C190.895 137.425 188.07 140.252 188.07 143.74C188.07 147.228 190.895 150.056 194.38 150.056Z" fill="#68E1FD"/>
<path d="M212.063 150.009C215.548 150.009 218.373 147.181 218.373 143.693C218.373 140.205 215.548 137.377 212.063 137.377C208.578 137.377 205.753 140.205 205.753 143.693C205.753 147.181 208.578 150.009 212.063 150.009Z" fill="#FFD200"/>
<path d="M452.821 288.067H303.543V297.366H452.821V288.067Z" fill="#E6E6E6"/>
<path d="M452.821 312.697H303.543V321.997H452.821V312.697Z" fill="#E6E6E6"/>
<path d="M407.263 337.328H303.543V346.628H407.263V337.328Z" fill="#E6E6E6"/>
<path d="M448.957 185.565H303.543V272.72H448.957V185.565Z" fill="#E6E6E6"/>
<path opacity="0.17" d="M286.805 184.776H175.86V216.101H286.805V184.776Z" fill="#666666"/>
<path d="M286.805 229.142H175.86V260.468H286.805V229.142Z" fill="#E6E6E6"/>
<path opacity="0.17" d="M195.184 256.22C201.405 256.22 206.447 251.173 206.447 244.947C206.447 238.721 201.405 233.674 195.184 233.674C188.964 233.674 183.921 238.721 183.921 244.947C183.921 251.173 188.964 256.22 195.184 256.22Z" fill="#666666"/>
<path opacity="0.17" d="M259.688 237.937H214.934V242.895H259.688V237.937Z" fill="#666666"/>
<path opacity="0.17" d="M242.982 247.852H214.934V252.81H242.982V247.852Z" fill="#666666"/>
<path d="M286.805 273.525H175.86V304.85H286.805V273.525Z" fill="#E6E6E6"/>
<path opacity="0.17" d="M195.184 300.603C201.405 300.603 206.447 295.556 206.447 289.33C206.447 283.104 201.405 278.056 195.184 278.056C188.964 278.056 183.921 283.104 183.921 289.33C183.921 295.556 188.964 300.603 195.184 300.603Z" fill="#666666"/>
<path opacity="0.17" d="M259.688 282.304H214.934V287.261H259.688V282.304Z" fill="#666666"/>
<path opacity="0.17" d="M242.982 292.235H214.934V297.193H242.982V292.235Z" fill="#666666"/>
<path d="M286.805 317.892H175.86V349.217H286.805V317.892Z" fill="#E6E6E6"/>
<path opacity="0.17" d="M195.184 344.97C201.405 344.97 206.447 339.922 206.447 333.696C206.447 327.47 201.405 322.423 195.184 322.423C188.964 322.423 183.921 327.47 183.921 333.696C183.921 339.922 188.964 344.97 195.184 344.97Z" fill="#666666"/>
<path opacity="0.17" d="M259.688 326.686H214.934V331.644H259.688V326.686Z" fill="#666666"/>
<path opacity="0.17" d="M242.982 336.602H214.934V341.559H242.982V336.602Z" fill="#666666"/>
<path opacity="0.08" d="M181.917 371.637C182.454 371.637 169.613 301.834 173.888 292.235C178.163 282.635 188.322 273.288 188.085 265.567C187.849 257.847 217.853 235.047 224.368 216.101L230.205 225.337L291.017 173.929C291.017 173.929 301.381 172.445 304.757 164.913C308.133 157.382 339.73 118.004 339.73 118.004H322.82L303.732 142.951L290.796 137.472L221.718 189.575L217.758 204.891C217.758 204.891 168.351 240.368 152.039 259.11C135.728 277.851 157.482 371.621 157.482 371.621L181.917 371.637Z" fill="black"/>
<path d="M287.54 126.068L213.086 187.804L231.261 209.762L305.715 148.027L287.54 126.068Z" fill="#24285B"/>
<path d="M235.805 197.928C241.468 197.928 246.058 193.333 246.058 187.665C246.058 181.997 241.468 177.402 235.805 177.402C230.142 177.402 225.551 181.997 225.551 187.665C225.551 193.333 230.142 197.928 235.805 197.928Z" fill="#FFD200"/>
<path opacity="0.17" d="M276.948 145.231L245.582 171.239L248.461 174.716L279.826 148.708L276.948 145.231Z" fill="white"/>
<path opacity="0.17" d="M270.991 161.894L251.336 178.191L254.214 181.668L273.87 165.371L270.991 161.894Z" fill="white"/>
<path d="M126.279 315.602L115.978 348.522C114.593 352.983 112.302 357.109 109.248 360.641C106.194 364.174 102.443 367.036 98.2309 369.048L83.0869 376.247L83.7021 380.732L106.323 375.837C111.653 374.268 116.595 371.6 120.834 368.005C125.072 364.411 128.512 359.968 130.932 354.964L146.913 322.028L126.279 315.602Z" fill="#F4A28C"/>
<path d="M160.416 324.886L165.243 395.494L160.747 397.057L142.843 331.012L160.416 324.886Z" fill="#F4A28C"/>
<path d="M166.174 396.71C166.174 396.71 167.215 400.894 170.37 402.204C173.525 403.515 171.947 408.062 167.215 405.283C165.742 404.429 164.343 403.452 163.035 402.362C161.804 401.394 160.341 400.768 158.791 400.547C158.502 400.471 158.241 400.316 158.037 400.098C157.833 399.88 157.696 399.608 157.64 399.315C157.009 397.01 162.246 394.831 162.246 394.831L166.174 396.71Z" fill="#68E1FD"/>
<path d="M83.7022 380.684C83.7022 380.684 80.5472 383.116 80.5472 386.305C80.5472 389.494 76.1302 389.889 76.6823 384.726C76.8494 383.126 77.1448 381.542 77.5657 379.989C77.9263 378.566 77.8991 377.072 77.4868 375.663C77.4278 375.387 77.4552 375.1 77.5653 374.84C77.6754 374.58 77.8628 374.36 78.102 374.211C79.8215 372.79 83.7022 376.421 83.7022 376.421V380.684Z" fill="#68E1FD"/>
<path d="M133.409 222.558L135.097 229.348L129.592 232.253L128.629 220.632L133.409 222.558Z" fill="#F4A28C"/>
<path d="M127.336 214.096C127.659 213.487 128.13 212.968 128.705 212.588C129.28 212.207 129.941 211.976 130.628 211.917C131.314 211.857 132.005 211.97 132.637 212.246C133.269 212.522 133.822 212.951 134.245 213.496C136.28 216.053 138.662 220.048 135.46 221.864C130.554 224.643 126.768 218.422 126.768 218.422C126.523 216.955 126.72 215.449 127.336 214.096Z" fill="#F4A28C"/>
<path d="M104.746 243.858C104.746 243.858 81.0835 280.914 85.816 286.377C100.865 303.745 134.277 264.683 134.277 264.683L104.746 243.858Z" fill="#F4A28C"/>
<path d="M158.318 238.316C151.521 233.35 143.359 230.605 134.945 230.455C126.532 230.305 118.277 232.758 111.308 237.479C105.109 241.695 100.266 248.01 102.522 257.136C107.649 278.562 124.055 292.677 124.607 311.529L163.429 308.924V284.656C163.42 282.363 163.886 280.093 164.799 277.99C165.711 275.886 167.05 273.995 168.729 272.436C172.105 269.278 175.481 264.21 173.178 257.231C171.08 251.01 165.779 243.795 158.318 238.316Z" fill="#68E1FD"/>
<path d="M130.412 218.422C130.412 218.422 129.308 217.332 128.645 218.706C127.983 220.08 130.049 220.932 130.727 220.285C131.406 219.638 130.412 218.422 130.412 218.422Z" fill="#F4A28C"/>
<path opacity="0.08" d="M139.104 248.421C139.104 248.421 130.712 264.462 140.445 280.109C150.178 295.756 131.737 311.039 131.737 311.039L163.382 308.924V295.093L139.104 248.421Z" fill="black"/>
<path d="M122.935 238.805C123.676 235.9 127.131 230.627 122.272 221.122C121.547 219.553 121.18 217.842 121.196 216.114C121.212 214.385 121.612 212.682 122.367 211.127C126.989 203.328 134.435 205.996 133.551 210.369C132.668 214.743 131.974 216.827 131.974 216.827C131.974 216.827 146.077 226.948 144.01 234.4C142.259 241.031 119.795 250.9 122.935 238.805Z" fill="#24285B"/>
<path d="M122.856 301.613H163.382L169.834 357.743L109.715 355.027L122.856 301.613Z" fill="#24285B"/>
<path d="M136.075 258.273C135.461 256.894 135.127 255.408 135.092 253.899C135.057 252.39 135.322 250.89 135.87 249.484C136.419 248.078 137.242 246.796 138.289 245.711C139.337 244.626 140.59 243.76 141.975 243.163C144.726 242.028 147.557 241.099 150.446 240.384C167.704 235.963 197.677 223.948 215.281 200.801C215.281 200.801 220.361 191.944 227.507 194.296C234.653 196.649 229.684 204.97 222.491 202.886C222.491 202.886 200.989 257.736 151.834 266.767C148.634 267.325 145.34 266.791 142.479 265.251C139.619 263.71 137.358 261.253 136.059 258.273H136.075Z" fill="#F4A28C"/>
<path d="M307.944 55.2594L327.568 63.1223L327.331 77.6165L310.231 63.6907L307.944 55.2594Z" fill="#F4A28C"/>
<path opacity="0.31" d="M312.818 65.9801C313.247 64.5484 313.247 63.0224 312.818 61.5908C315.192 63.5255 316.743 66.2911 317.156 69.3273L312.818 65.9801Z" fill="#CE8172"/>
<path d="M301.65 62.4591C304.244 64.9463 307.162 67.0707 310.326 68.7747C310.709 68.9639 311.127 69.0731 311.554 69.0957C311.981 69.1183 312.408 69.0538 312.809 68.9062C313.211 68.7585 313.578 68.5308 313.889 68.2367C314.199 67.9427 314.447 67.5886 314.617 67.1958C315.26 65.9769 315.537 64.5976 315.413 63.2247C315.29 61.8518 314.772 60.544 313.923 59.4592L310.768 54.4226C310.026 53.4792 309.009 52.7911 307.858 52.4543C306.707 52.1174 305.479 52.1487 304.347 52.5437C299.977 53.6647 298.668 59.8698 301.65 62.4591Z" fill="#F4A28C"/>
<path d="M304.726 65.1117L305.546 68.0642C305.592 68.2323 305.68 68.3861 305.802 68.5114C305.923 68.6367 306.074 68.7296 306.24 68.7814C306.406 68.8333 306.583 68.8425 306.754 68.8082C306.925 68.7739 307.085 68.6973 307.218 68.5852L309.111 67.0063L304.726 65.1117Z" fill="#F4A28C"/>
<path d="M316.257 58.0856L310.263 51.6911C310.263 51.6911 312.156 47.0966 308.685 46.6387C305.215 46.1808 305.956 48.9754 302.817 47.0966C299.678 45.2177 297.453 47.3334 298.084 50.2543C298.715 53.1753 296.791 50.7754 295.071 52.7963C293.352 54.8173 293.951 56.0489 295.624 57.1699C297.296 58.2909 293.462 60.3276 295.087 62.5381C296.712 64.7485 298.715 66.1537 302.549 60.8013C306.382 55.4489 308.417 62.2697 316.257 58.0856Z" fill="#FFD200"/>
<path d="M310.247 60.5487C310.247 60.5487 308.338 58.9698 309.647 57.6277C310.957 56.2857 313.733 58.5751 312.408 60.7855L310.247 60.5487Z" fill="#F4A28C"/>
<path opacity="0.08" d="M378.868 121.652C378.868 121.652 370.555 143.251 379.988 154.098C389.422 164.945 410.497 175.429 410.497 175.429C410.497 175.429 413.195 188.06 419.867 176.581L418.574 170.36L398.839 155.329L386.219 139.367L394.359 121.999L378.868 121.652Z" fill="black"/>
<path d="M405.907 94.7474L394.375 109.526L386.661 119.583C382.178 120.258 377.64 120.507 373.11 120.325C359.733 119.852 340.077 115.589 331.512 96.4526C328.973 90.5018 327.561 84.1308 327.347 77.6638L327.568 63.1854C327.568 63.1854 349.18 47.3965 368.583 60.5645C387.986 73.7324 405.907 94.7474 405.907 94.7474Z" fill="#68E1FD"/>
<path d="M405.907 94.7474C405.907 94.7474 427.503 109.178 415.924 119.11C410.036 124.36 404.678 130.178 399.928 136.477C398.727 138.037 398.131 139.978 398.25 141.943C398.369 143.908 399.195 145.764 400.575 147.167L416.634 163.54L413.841 171.039L390.179 156.024C386.452 153.653 383.628 150.099 382.158 145.931C380.688 141.764 380.657 137.223 382.071 133.035L386.661 119.583L405.907 94.7474Z" fill="#24285B"/>
<path opacity="0.08" d="M394.375 109.526L386.661 119.583C386.661 119.583 381.029 119.962 373.11 120.325C359.733 119.852 340.077 115.589 331.512 96.4526C338.453 86.9793 347.586 78.0428 351.877 77.0638C351.877 77.0638 359.922 99.7841 371.943 103.558C383.68 107.252 393.933 109.478 394.422 109.589L394.375 109.526Z" fill="black"/>
<path d="M352.571 81.0742C354.149 67.78 337.001 61.0855 328.783 71.6009C326.334 74.7203 324.503 78.2785 323.388 82.0847C319.191 96.2947 293.021 154.177 293.021 154.177L301.902 158.519C301.902 158.519 335.171 116.899 348.123 93.9896C350.445 90.0216 351.957 85.6316 352.571 81.0742V81.0742Z" fill="#68E1FD"/>
<path opacity="0.36" d="M352.571 81.0742C354.149 67.78 337.001 61.0855 328.783 71.6009C326.334 74.7203 324.503 78.2785 323.388 82.0847C319.191 96.2947 293.021 154.177 293.021 154.177L301.902 158.519C301.902 158.519 335.171 116.899 348.123 93.9896C350.445 90.0216 351.957 85.6316 352.571 81.0742V81.0742Z" fill="white"/>
<path d="M294.425 154.887C294.425 154.887 284.628 160.413 290.134 164.061C295.639 167.708 301.839 158.519 301.839 158.519L294.425 154.887Z" fill="#F4A28C"/>
<path d="M414.504 169.176C414.504 169.176 419.063 173.913 417.454 176.976C417.454 176.976 420.609 180.339 423.07 175.918C425.531 171.497 421.24 166.445 421.24 166.445L416.144 164.708L414.504 169.176Z" fill="#68E1FD"/>
<path opacity="0.08" d="M455.472 326.939C452.317 335.128 449.472 343.422 446.937 351.822C446.432 353.496 444.271 363.822 442.457 370.658H463.485C464.89 354.742 470.564 339.5 479.907 326.544C480.112 341.796 480.68 358.122 489.277 370.658H498.884C500.853 368.323 502.025 365.418 502.229 362.369C502.337 358.189 501.843 354.014 500.762 349.975C498.158 337.409 496.816 324.614 496.755 311.781C496.755 295.629 498.632 279.446 497.244 263.341C496.408 253.789 494.089 243.621 486.785 237.321C486.479 237.048 486.152 236.8 485.807 236.579C486.533 230.895 486.895 225.148 487.227 219.448L488.236 202.838C488.583 197.202 485.413 188.028 478.913 194.36C473.613 199.507 475.458 205.412 474.181 211.554C472.162 221.153 460.283 219.906 452.79 219.574C429.127 218.517 405.212 219.116 381.455 219.116H325.628V322.486H457.301C456.67 323.97 456.039 325.455 455.472 326.939Z" fill="black"/>
<path d="M449.966 392.052C449.966 392.052 446.48 395.494 442.71 393.868C438.939 392.242 436.194 395.447 438.971 398.178C441.747 400.91 452.253 401.004 452.253 401.004L455.33 393.884L449.966 392.052Z" fill="#68E1FD"/>
<path d="M508.507 390.457C508.507 390.457 510.211 395.194 507.371 398.226C504.532 401.257 506.299 405.173 509.738 403.499C513.177 401.826 517.231 391.594 517.231 391.594L512.135 385.91L508.507 390.457Z" fill="#68E1FD"/>
<path d="M517.83 302.308C517.83 302.308 521.506 317.623 515.117 325.155C508.728 332.686 498.947 368.369 515.117 386.21L508.728 392.526C508.728 392.526 480.727 377.463 488.709 323.149L468.707 302.292L517.83 302.308Z" fill="#24285B"/>
<path d="M468.707 302.308L448.199 392.542L458.469 394.121C458.469 394.121 478.976 332.275 492.559 319.581L468.707 302.308Z" fill="#24285B"/>
<path d="M463.943 222.969C463.943 222.969 442.52 232.111 445.802 265.599L466.719 263.815L463.943 222.969Z" fill="#68E1FD"/>
<path opacity="0.36" d="M463.943 222.969C463.943 222.969 442.52 232.111 445.802 265.599L466.719 263.815L463.943 222.969Z" fill="white"/>
<path d="M494.026 197.896L493.205 219.653L481.264 218.343L486.643 203.043L494.026 197.896Z" fill="#F4A28C"/>
<path opacity="0.31" d="M485.334 206.422C486.877 206.325 488.359 205.776 489.593 204.843C488.536 207.814 486.394 210.274 483.598 211.727L485.334 206.422Z" fill="#CE8172"/>
<path d="M492.18 215.248L485.207 216.701C485.207 216.701 453.279 220.143 451.985 238.174C450.692 256.205 468.723 302.308 468.723 302.308H517.104C517.104 302.308 555.832 210.48 492.18 215.248Z" fill="#68E1FD"/>
<path d="M482.242 194.707C481.418 198.33 481.089 202.048 481.264 205.759C481.363 206.64 481.807 207.446 482.499 208C483.191 208.553 484.075 208.809 484.955 208.712C486.375 208.631 487.741 208.141 488.889 207.301C490.036 206.46 490.917 205.305 491.423 203.975L494.183 198.496C494.62 197.341 494.69 196.08 494.382 194.884C494.074 193.688 493.404 192.617 492.464 191.818C489.12 188.612 482.936 190.712 482.242 194.707Z" fill="#F4A28C"/>
<path opacity="0.09" d="M506.378 223.648C506.378 223.648 489.893 233.263 493.758 255.036C497.622 276.809 503.98 284.293 490.334 281.262C476.689 278.23 471.073 271.362 471.073 271.362C471.073 271.362 461.245 279.383 471.073 285.461C480.901 291.54 494.231 291.54 496.313 302.308H517.073C517.073 302.308 518.745 297.571 520.969 291.651C523.194 285.73 506.378 223.648 506.378 223.648Z" fill="black"/>
<path d="M483.835 195.212C485.854 195.575 487.908 195.702 489.956 195.591C489.246 196.403 488.79 197.405 488.641 198.474C488.493 199.543 488.659 200.631 489.12 201.607C489.55 202.561 490.298 203.335 491.237 203.796C492.176 204.257 493.245 204.376 494.262 204.133L495.335 195.67C495.532 194.464 495.396 193.227 494.943 192.092C494.49 190.957 493.737 189.967 492.764 189.228C491.927 188.581 491.053 187.985 490.145 187.444C488.864 186.729 487.412 186.38 485.946 186.432C484.481 186.485 483.058 186.939 481.832 187.744C480.916 188.525 480.344 189.636 480.241 190.836C480.138 192.036 480.511 193.228 481.279 194.154C482.007 194.754 482.897 195.122 483.835 195.212V195.212Z" fill="#24285B"/>
<path d="M488.441 201.322C488.441 201.322 488.851 198.78 490.729 199.254C492.606 199.728 492.038 203.359 489.404 203.343L488.441 201.322Z" fill="#F4A28C"/>
<path d="M475.222 209.075H334.903V311.924H475.222V209.075Z" fill="#FFD200"/>
<path opacity="0.43" d="M463.643 218.659H346.498V302.34H463.643V218.659Z" fill="white"/>
<path opacity="0.49" d="M347.839 302.34L379.72 243.337L406.79 289.093L431.146 260.499L463.627 302.34H347.839Z" fill="white"/>
<path d="M408.967 254.626C414.159 254.626 418.369 250.413 418.369 245.216C418.369 240.018 414.159 235.805 408.967 235.805C403.774 235.805 399.565 240.018 399.565 245.216C399.565 250.413 403.774 254.626 408.967 254.626Z" fill="white"/>
<path d="M531.965 262.125C531.965 262.125 534.694 290.088 520.922 291.651C510.574 292.819 493.978 286.914 483.835 284.088C479.45 282.825 477.32 282.24 473.944 279.162C469.906 275.467 464.29 272.846 468.644 269.325C476.389 263.01 481.895 273.762 481.895 273.762C488.361 275.646 495.028 276.759 501.755 277.077C503.018 277.113 504.272 276.853 505.417 276.318C506.561 275.783 507.565 274.988 508.348 273.995C509.131 273.003 509.672 271.841 509.927 270.603C510.182 269.364 510.144 268.083 509.816 266.862L507.261 257.231C507.261 257.231 525.449 240.179 531.965 262.125Z" fill="#F4A28C"/>
<path d="M481.516 198.844L479.339 201.117C479.216 201.247 479.127 201.406 479.081 201.58C479.035 201.753 479.033 201.935 479.075 202.11C479.118 202.284 479.203 202.445 479.324 202.578C479.444 202.71 479.596 202.811 479.765 202.87L482.21 203.691L481.516 198.844Z" fill="#F4A28C"/>
<path d="M517.72 221.469C524.803 226.948 535.577 239.042 535.372 261.904L506.062 263.783C506.062 263.783 497.591 238.679 506.441 223.648C506.989 222.708 507.732 221.896 508.62 221.267C509.507 220.637 510.519 220.205 511.587 219.999C512.654 219.792 513.754 219.817 514.812 220.07C515.87 220.324 516.861 220.801 517.72 221.469V221.469Z" fill="#68E1FD"/>
<path opacity="0.36" d="M517.72 221.469C524.803 226.948 535.577 239.042 535.372 261.904L506.062 263.783C506.062 263.783 497.591 238.679 506.441 223.648C506.989 222.708 507.732 221.896 508.62 221.267C509.507 220.637 510.519 220.205 511.587 219.999C512.654 219.792 513.754 219.817 514.812 220.07C515.87 220.324 516.861 220.801 517.72 221.469V221.469Z" fill="white"/>
<path d="M229.384 118.036H273.554V111.042H229.384V118.036Z" fill="#C9C9C9"/>
<path d="M229.384 111.01H262.796V104.015H229.384V111.01Z" fill="#E6E6E6"/>
<path opacity="0.58" d="M233.139 102.405C233.139 102.405 245.475 99.0262 248.172 87.5161C248.172 87.5161 229.037 83.6478 228.485 103.416L233.139 102.405Z" fill="#68E1FD"/>
<path opacity="0.73" d="M231.624 101.173C231.624 101.173 240.238 87.5161 232.65 74.7587C232.65 74.7587 218.105 84.011 224.573 101.205L231.624 101.173Z" fill="#68E1FD"/>
<path d="M229.4 101.189C229.4 101.189 224.841 86.774 211.054 84.0425C211.054 84.0425 208.482 93.3896 219.982 101.221L229.4 101.189Z" fill="#68E1FD"/>
<path d="M238.344 100.858L235.852 118.004L220.077 118.068L217.758 100.937L238.344 100.858Z" fill="#24285B"/>
</svg>
